<svg width="50" height="50" viewBox="0 0 40 40" fill="none" xmlns="http://www.w3.org/2000/svg">
<path d="M19.75 11.4177V38.501M19.75 11.4177C18.9964 8.31228 17.6988 5.65729 16.0265 3.79916C14.3542 1.94104 12.3848 0.965895 10.375 1.00091C8.99366 1.00091 7.6689 1.54964 6.69215 2.5264C5.7154 3.50315 5.16667 4.82791 5.16667 6.20924C5.16667 7.59058 5.7154 8.91534 6.69215 9.89209C7.6689 10.8688 8.99366 11.4176 10.375 11.4176M19.75 11.4177C20.5036 8.31228 21.8012 5.65729 23.4735 3.79916C25.1458 1.94104 27.1152 0.965895 29.125 1.00091C30.5063 1.00091 31.8311 1.54964 32.8078 2.5264C33.7846 3.50315 34.3333 4.82791 34.3333 6.20924C34.3333 7.59058 33.7846 8.91534 32.8078 9.89209C31.8311 10.8688 30.5063 11.4176 29.125 11.4176M34.3333 19.751V34.3344C34.3333 35.4394 33.8943 36.4992 33.1129 37.2806C32.3315 38.062 31.2717 38.501 30.1667 38.501H9.33333C8.22826 38.501 7.16846 38.062 6.38705 37.2806C5.60565 36.4992 5.16667 35.4394 5.16667 34.3344V19.751M1 13.501C1 12.9485 1.21949 12.4186 1.61019 12.0279C2.00089 11.6372 2.5308 11.4177 3.08333 11.4177H36.4167C36.9692 11.4177 37.4991 11.6372 37.8898 12.0279C38.2805 12.4186 38.5 12.9485 38.5 13.501V17.6677C38.5 18.2202 38.2805 18.7501 37.8898 19.1408C37.4991 19.5315 36.9692 19.751 36.4167 19.751H3.08333C2.5308 19.751 2.00089 19.5315 1.61019 19.1408C1.21949 18.7501 1 18.2202 1 17.6677V13.501Z" stroke="#EEEEEE" stroke-width="2" stroke-linecap="round" stroke-linejoin="round"/>
</svg>
