<svg width="30" height="27" viewBox="0 0 30 27" fill="none" xmlns="http://www.w3.org/2000/svg">
<g clip-path="url(#clip0_6001_157)">
<path d="M27.6603 0C24.1725 5.2954 17.0338 16.1477 13.6364 21.2981L12.4446 22.8671L10.067 26.0052L12.2931 22.7677L13.4062 21.1503C14.0501 20.0787 17.704 13.9249 18.4266 12.7141L25.9819 0H20.3118L19.9301 1.56048L22.8613 2.95326L12.2028 20.4056H11.8794L11.5938 17.8645L8.98601 2.85946L12.127 1.56048L12.5058 0H0.361305L0 1.56048L2.11247 2.54395C2.31643 2.64344 2.48834 2.78556 2.62821 2.97031C2.76807 3.15791 2.84965 3.34835 2.87587 3.54732L7.02506 27H11.25L14.4289 22.5971L26.3054 3.62122C26.4336 3.41089 26.5996 3.22044 26.8007 3.05558C27.0047 2.88788 27.2145 2.75429 27.4301 2.65481L29.6183 1.56048L30 0H27.6603Z" fill="#EEEEEE"/>
<path d="M12.127 1.56048L8.98601 2.85946L11.5938 17.8645L11.8794 20.4056H12.2028L7.02506 27L2.87587 3.54732C2.84965 3.34835 2.76807 3.15791 2.62821 2.97031C2.48834 2.78556 2.31643 2.64344 2.11247 2.54395L0 1.56048L0.361305 0H12.5058L12.127 1.56048Z" fill="#AFAFAF"/>
</g>
<defs>
<clipPath id="clip0_6001_157">
<rect width="30" height="27" fill="white"/>
</clipPath>
</defs>
</svg>
