<svg width="40" height="32" viewBox="0 0 40 32" fill="none" xmlns="http://www.w3.org/2000/svg">
<path d="M39.225 3.75C37.7812 4.40625 36.225 4.8375 34.6125 5.04375C36.2625 4.05 37.5375 2.475 38.1375 0.58125C36.5812 1.51875 34.8562 2.175 33.0375 2.55C31.5562 0.9375 29.475 0 27.1125 0C22.7062 0 19.1062 3.6 19.1062 8.04375C19.1062 8.68125 19.1812 9.3 19.3125 9.88125C12.6375 9.54375 6.69375 6.3375 2.7375 1.48125C2.04375 2.6625 1.65 4.05 1.65 5.5125C1.65 8.30625 3.05625 10.7812 5.23125 12.1875C3.9 12.1875 2.6625 11.8125 1.575 11.25V11.3062C1.575 15.2062 4.35 18.4687 8.025 19.2C6.84532 19.5243 5.60632 19.5692 4.40625 19.3312C4.91551 20.9296 5.91288 22.3283 7.25816 23.3305C8.60343 24.3327 10.229 24.8882 11.9062 24.9188C9.06313 27.1697 5.53877 28.3864 1.9125 28.3687C1.275 28.3687 0.6375 28.3312 0 28.2562C3.5625 30.5437 7.8 31.875 12.3375 31.875C27.1125 31.875 35.2313 19.6125 35.2313 8.98125C35.2313 8.625 35.2312 8.2875 35.2125 7.93125C36.7875 6.80625 38.1375 5.38125 39.225 3.75Z" fill="#EEEEEE"/>
</svg>
